<svg width="14" height="14" viewBox="0 0 14 14" fill="none" xmlns="http://www.w3.org/2000/svg">
<path d="M0.636667 3.18143C0.986023 3.18143 1.27238 2.89507 1.27238 2.54572V1.90905C1.27333 1.55874 1.55969 1.27238 1.90905 1.27238H2.54571C2.89507 1.27238 3.18143 0.986023 3.18143 0.636667C3.18143 0.286357 2.89507 0 2.54571 0H1.90905C0.85239 0 0 0.85239 0 1.90905V2.54572C0 2.89507 0.286357 3.18143 0.636667 3.18143ZM2.54571 12.7267H1.90905C1.74051 12.7262 1.57901 12.6591 1.45975 12.54C1.34049 12.4209 1.27314 12.2595 1.27238 12.091V11.4543C1.27238 11.104 0.986023 10.8186 0.636667 10.8186C0.286357 10.8186 0 11.1049 0 11.4543V12.091C0 13.1476 0.85239 14 1.90905 14H2.54571C2.89507 14 3.18143 13.7136 3.18143 13.3633C3.18143 13.013 2.89507 12.7276 2.54571 12.7276V12.7267ZM12.091 0H11.4552C11.1049 0 10.8186 0.286357 10.8186 0.636667C10.8186 0.986023 11.1049 1.27238 11.4552 1.27238H12.091C12.4413 1.27238 12.7276 1.55874 12.7276 1.90905V2.54572C12.7276 2.89507 13.014 3.18143 13.3643 3.18143C13.7136 3.18143 14 2.89507 14 2.54572V1.90905C14 0.85239 13.1476 0 12.091 0ZM13.3643 10.8176C13.014 10.8176 12.7276 11.104 12.7276 11.4543V12.091C12.7276 12.4413 12.4413 12.7276 12.091 12.7276H11.4552C11.1049 12.7276 10.8186 13.014 10.8186 13.3633C10.8186 13.7136 11.1049 14 11.4552 14H12.091C13.1476 14 14 13.1476 14 12.091V11.4543C14 11.104 13.7136 10.8186 13.3643 10.8186V10.8176ZM11.4533 8.82648V5.17352C11.4533 4.71535 11.2118 4.29536 10.8176 4.07295L7.63524 2.24027C7.44233 2.12708 7.22271 2.0674 6.99905 2.0674C6.77538 2.0674 6.55576 2.12708 6.36286 2.24027L3.18143 4.06532C2.78626 4.2944 2.54476 4.71439 2.54476 5.17256V8.82553C2.54476 9.2837 2.78626 9.70369 3.18143 9.92609L6.36286 11.7588C6.55576 11.872 6.77538 11.9316 6.99905 11.9316C7.22271 11.9316 7.44233 11.872 7.63524 11.7588L10.8186 9.92705C11.0126 9.8164 11.1737 9.65618 11.2854 9.46279C11.3971 9.26941 11.4554 9.04981 11.4543 8.82648H11.4533ZM6.36286 10.2898L3.81714 8.82648V5.87987L6.36286 7.36224V10.2898ZM6.99952 6.26168L4.47958 4.79171L6.99952 3.34083L9.51947 4.79171L6.99952 6.26168ZM10.181 8.82648L7.63524 10.2898V7.36224L10.181 5.87987V8.82648Z" fill="#A2C3E1"/>
</svg>
