<svg width="32" height="32" viewBox="0 0 32 32" fill="none" xmlns="http://www.w3.org/2000/svg">
<g clip-path="url(#clip0_533_1059)">
<path d="M31.5756 25.6469C31.4588 24.7951 30.4919 24.2203 28.6198 23.8894C27.0589 23.6136 24.9034 23.514 22.3858 23.6014C22.0877 23.6117 21.8544 23.8618 21.8647 24.1599C21.8751 24.458 22.1261 24.6914 22.4233 24.681C24.8664 24.5962 26.9441 24.6903 28.4318 24.9532C30.0781 25.2442 30.4868 25.6585 30.5053 25.7937C30.5345 26.0067 29.9078 26.8623 26.7522 27.9636C24.0229 28.9161 20.3265 29.7417 16.3437 30.2883C12.3048 30.8429 8.48443 31.0416 5.58648 30.8475C5.28848 30.8275 5.03135 31.0527 5.01147 31.3503C4.9916 31.6479 5.21673 31.9054 5.51429 31.9253C6.26048 31.9753 7.06536 32 7.91749 32C10.4559 32 13.4141 31.781 16.4906 31.3586C20.5423 30.8024 24.313 29.959 27.1081 28.9836C30.2711 27.8797 31.7324 26.7882 31.5756 25.6469Z" fill="#FF9F0F"/>
<path d="M26.12 9.79884C25.9522 9.63728 25.6999 9.60147 25.4938 9.7099C25.4773 9.71859 23.813 10.584 21.4978 10.8883C20.1888 11.0604 18.9533 11.0239 17.7963 10.782C19.452 10.2255 20.6483 8.6599 20.6483 6.81914C20.6483 6.09014 20.4602 5.38151 20.1027 4.7532C20.323 4.07857 20.6271 2.73156 20.0342 1.61337C19.5943 0.783743 18.7739 0.259178 17.5958 0.0541148C16.2789 -0.174949 15.0416 0.363116 13.732 0.932931C12.1665 1.61412 10.5476 2.31856 8.66266 1.72731C8.47628 1.66887 8.27291 1.71606 8.13072 1.85C7.98853 1.98393 7.92985 2.18475 7.9771 2.37431C7.9771 2.37431 7.98153 2.39212 7.99066 2.4255C8.3846 3.87119 9.41104 5.01988 10.807 5.57689C11.3214 5.78214 11.8545 5.89264 12.386 5.91183C12.3207 6.2072 12.2869 6.51027 12.2869 6.8192C12.2869 7.17114 12.3312 7.51289 12.4134 7.83965C8.96035 5.68439 5.8559 7.17602 4.22264 8.35277C4.03252 8.48983 3.95245 8.73384 4.02439 8.9569C4.09639 9.17996 4.30402 9.33109 4.53846 9.33109C5.70109 9.33109 8.56928 9.50296 10.0882 11.0951C10.7657 11.8053 11.0827 12.7284 11.0304 13.8389C11.0164 14.1369 11.2465 14.3899 11.5445 14.4038C11.8419 14.4178 12.0954 14.1877 12.1094 13.8897C12.1761 12.4727 11.759 11.2815 10.8698 10.3493C9.65779 9.07896 7.80897 8.56865 6.33003 8.37027C8.12297 7.57046 10.4161 7.42377 12.8519 9.50021C15.2549 11.5487 18.2934 12.399 21.6384 11.9593C22.5518 11.8393 23.3688 11.64 24.0418 11.4333C22.834 12.503 20.6183 13.6917 16.9261 13.2677C16.6289 13.2335 16.3619 13.4463 16.3278 13.7426C16.3074 13.9208 16.3765 14.0883 16.499 14.2012C16.5001 14.2024 16.501 14.2039 16.5023 14.2049C16.5135 14.2152 17.5486 15.1655 18.5458 16.9302C18.2885 16.8742 18.0304 16.8225 17.7722 16.7789C17.4779 16.7293 17.1994 16.9276 17.1498 17.2217C17.1001 17.5158 17.2983 17.7945 17.5925 17.8441C18.1255 17.9341 18.6584 18.0545 19.1814 18.1995C19.396 18.6882 19.6033 19.2349 19.7853 19.8365C19.2884 20.1648 18.5741 20.2867 18.1429 20.3195C17.4474 19.5558 16.6295 18.9184 15.6808 18.5626C14.9762 18.2984 14.2828 18.3659 13.6754 18.7578C12.9451 19.229 12.3244 20.1851 11.8198 21.6098C11.1523 21.536 10.6208 21.2856 10.337 21.1239C10.4235 20.2163 10.6085 19.2306 10.9299 18.1761C11.5709 17.981 13.4642 17.4952 15.9823 17.6571C16.2816 17.6764 16.5369 17.4504 16.5559 17.1527C16.5751 16.855 16.3493 16.5982 16.0516 16.5791C14.0094 16.4479 12.3566 16.7116 11.3581 16.9442C11.3773 16.8951 11.3953 16.8464 11.415 16.7971C11.5983 16.3389 11.7475 15.8905 11.8586 15.4643C11.9338 15.1757 11.7608 14.8807 11.4722 14.8054C11.1835 14.7302 10.8885 14.9032 10.8133 15.1919C10.7136 15.5744 10.5786 15.9794 10.4121 16.3958C8.9231 20.1177 9.06897 23.1621 9.4536 25.0607C9.46954 25.1393 9.48616 25.2162 9.50304 25.2923C6.9399 25.8765 4.76627 26.5507 3.19176 27.2514C1.20438 28.136 0.29919 29.0098 0.424503 29.9222C0.552504 30.8577 1.71357 31.4631 3.97408 31.7727C3.99895 31.7761 4.02364 31.7777 4.04802 31.7777C4.31377 31.7777 4.54546 31.5815 4.58246 31.3109C4.62296 31.0154 4.41614 30.743 4.12058 30.7025C2.03138 30.4164 1.5167 29.9365 1.49469 29.7756C1.47357 29.6219 1.81626 29.0463 3.63114 28.2385C5.15121 27.562 7.27097 26.9072 9.78366 26.3365C10.1927 27.6247 10.6675 28.3475 10.6931 28.3861C10.7949 28.5389 10.965 28.6267 11.1425 28.6267C11.1889 28.6267 11.2357 28.6207 11.2819 28.6084C11.5055 28.5487 11.6663 28.3531 11.6815 28.1222C11.7174 27.581 11.7974 26.7842 11.9303 25.8901C13.1365 25.6602 14.3877 25.4553 15.6561 25.281C16.9973 25.0971 18.3283 24.9514 19.6195 24.8463C20.0597 25.9092 20.2769 26.7054 20.2798 26.716C20.3464 26.964 20.5783 27.1308 20.8348 27.115C21.0912 27.0992 21.3008 26.905 21.3363 26.6507C21.9473 22.2768 20.8062 18.9167 19.7415 16.8682C19.1987 15.8241 18.6248 15.0088 18.1622 14.432C18.2451 14.4335 18.3285 14.4356 18.4098 14.4356C21.1783 14.4355 23.0384 13.545 24.1637 12.7244C25.6302 11.6551 26.2084 10.4713 26.2324 10.4213C26.3331 10.2113 26.2878 9.96034 26.12 9.79884ZM11.2077 4.57338C10.4192 4.25876 9.78335 3.7 9.37979 2.986C11.1959 3.21457 12.7586 2.53462 14.1632 1.92337C15.3702 1.39812 16.4126 0.944493 17.4108 1.11824C18.2414 1.26281 18.8024 1.59856 19.0783 2.11619C19.4311 2.778 19.2976 3.632 19.1466 4.18226C17.0724 3.18681 15.4322 3.68463 14.3894 4.31738C13.4254 4.90226 12.2657 4.99563 11.2077 4.57338ZM13.3675 6.81902C13.3675 6.46983 13.4249 6.13108 13.5367 5.80814C14.0281 5.70001 14.5049 5.51082 14.9499 5.24088C16.2372 4.45969 17.6584 4.52076 19.1741 5.42232C19.2002 5.43782 19.2276 5.45032 19.2555 5.46114C19.4607 5.88207 19.5682 6.34464 19.5682 6.81908C19.5681 8.52865 18.1773 9.9194 16.4678 9.9194C14.7583 9.91934 13.3675 8.52859 13.3675 6.81902ZM11.1491 24.1072C11.0095 24.792 10.9027 25.4521 10.8223 26.0302C10.528 25.1068 10.2647 23.8435 10.2761 22.3C10.6035 22.4428 11.0167 22.5822 11.4934 22.6565C11.3698 23.1053 11.2549 23.5886 11.1491 24.1072ZM15.5093 24.2107C14.3593 24.3687 13.2232 24.5517 12.1207 24.7553C12.5183 22.636 13.1989 20.3512 14.2615 19.6656C14.5834 19.4578 14.914 19.4287 15.3019 19.5742C17.0263 20.2208 18.2809 22.1012 19.0296 23.5648C19.0703 23.6443 19.1096 23.7233 19.1483 23.802C17.9579 23.9055 16.7378 24.0422 15.5093 24.2107ZM20.425 23.9736C20.0509 23.1314 19.5545 22.1801 18.9274 21.2983C19.2836 21.2269 19.6888 21.1097 20.0683 20.9176C20.272 21.8367 20.4073 22.8576 20.425 23.9736Z" fill="#FF9F0F"/>
<path d="M16.0819 5.79304C15.883 5.67204 15.6238 5.69317 15.4472 5.8446C15.0737 6.16486 15.3121 6.79386 15.8002 6.79386C16.0448 6.79386 16.2625 6.62223 16.3228 6.38617C16.3806 6.16023 16.2814 5.91435 16.0819 5.79304Z" fill="#FF9F0F"/>
<path d="M18.9837 5.66782C18.7825 5.56119 18.5303 5.59357 18.3628 5.74776C18.0089 6.07357 18.2493 6.68432 18.7291 6.68432C18.9886 6.68432 19.2173 6.49201 19.2613 6.23632C19.3002 6.00982 19.1871 5.77563 18.9837 5.66782Z" fill="#FF9F0F"/>
<path d="M18.1536 7.4004L16.5309 7.48378C16.3413 7.49353 16.214 7.68659 16.2842 7.86309C16.4595 8.30378 16.9006 8.60466 17.4006 8.57897C17.902 8.55316 18.3109 8.20678 18.4388 7.74853C18.4895 7.56728 18.3416 7.39078 18.1536 7.4004Z" fill="#FF9F0F"/>
</g>
<defs>
<clipPath id="clip0_533_1059">
<rect width="32" height="32" rx="3" fill="white"/>
</clipPath>
</defs>
</svg>
