<svg width="24" height="9" viewBox="0 0 24 9" fill="none" xmlns="http://www.w3.org/2000/svg">
<path d="M0 5C0 6.93906 4.20576 8.99906 12 8.99732C19.7942 8.99557 24 6.93369 24 4.99463C24 3.05558 19.7942 0.995575 12 0.997317C4.20576 0.99906 0 3.06094 0 5ZM0.857123 4.99981C0.857123 3.70143 4.22531 2.27498 9.3288 1.89484L13.0694 4.99708L9.3288 8.10099C4.22531 7.72317 0.857123 6.29823 0.857123 4.99981ZM23.1428 4.99483C23.1428 6.27128 19.8877 7.67153 14.9289 8.07965L18.2846 5.29492C18.3763 5.21892 18.4285 5.11011 18.4285 4.99588C18.4285 4.88161 18.3762 4.77287 18.2846 4.69687L14.9289 1.91363C19.8878 2.31962 23.1428 3.71842 23.1428 4.99483ZM13.5377 1.83017L17.3551 4.99612L13.5377 8.16377L13.5391 8.16535C13.0397 8.18616 12.5264 8.19722 12 8.19733C11.5002 8.19745 11.0122 8.18766 10.5367 8.16904L13.9989 5.29592C14.0906 5.21992 14.1429 5.11111 14.1429 4.99688C14.1429 4.88261 14.0905 4.77387 13.9989 4.69787L10.5367 1.82629C11.0122 1.8075 11.5002 1.79745 12 1.79734C12.5264 1.79723 13.0397 1.8081 13.5391 1.82869L13.5377 1.83017Z" fill="white"/>
</svg>
