<svg width="32" height="32" viewBox="0 0 32 32" fill="none" xmlns="http://www.w3.org/2000/svg">
<path d="M17.0051 27.4104L9.56348 19.9686C9.35848 19.7636 9.02617 19.7636 8.82123 19.9686C8.61623 20.1736 8.61623 20.5059 8.82123 20.7109L16.2629 28.1526C16.3653 28.2551 16.4997 28.3064 16.634 28.3064C16.7683 28.3064 16.9027 28.2551 17.0051 28.1526C17.2101 27.9476 17.2101 27.6153 17.0051 27.4104Z" fill="#FF9F0F"/>
<path d="M31.6059 7.94128C30.7197 7.05515 29.5416 6.56715 28.2884 6.56715C27.0352 6.56715 25.8571 7.05515 24.971 7.94128L22.5541 10.3581L16.6397 4.44365C15.6396 3.44359 14.0124 3.44359 13.0122 4.44365C12.4942 4.96171 12.2453 5.64809 12.2639 6.3284C12.052 6.27265 11.8316 6.24328 11.6067 6.24328C10.9216 6.24328 10.2775 6.51015 9.793 6.99459C9.12456 7.66303 8.90362 8.61134 9.12862 9.46553C8.44775 9.44634 7.76062 9.69534 7.24206 10.2138C6.84156 10.6143 6.60187 11.1156 6.52212 11.6367L4.08906 9.20365C3.15513 8.26971 1.6355 8.26971 0.701625 9.20365C0.249125 9.65615 0 10.2577 0 10.8975C0 11.5373 0.249125 12.1388 0.701563 12.5912L7.59656 19.4862C7.699 19.5887 7.83337 19.64 7.96769 19.64C8.102 19.64 8.23637 19.5887 8.33881 19.4862C8.54381 19.2812 8.54381 18.9489 8.33881 18.744L7.10038 17.5055L7.9915 16.6144C8.1965 16.4094 8.1965 16.0771 7.9915 15.8722C7.7865 15.6672 7.45419 15.6672 7.24925 15.8722L6.35813 16.7633L3.77612 14.1813L4.66725 13.2902C4.87225 13.0852 4.87225 12.7528 4.66725 12.5479C4.46225 12.3429 4.12994 12.3429 3.925 12.5479L3.03387 13.439L1.44381 11.849C1.18969 11.5948 1.04975 11.2569 1.04975 10.8975C1.04975 10.5381 1.18975 10.2002 1.44381 9.94603C1.9685 9.4214 2.82212 9.4214 3.34669 9.94603L10.7367 17.336C11.2211 17.8205 11.8652 18.0873 12.5504 18.0872C13.2355 18.0872 13.8796 17.8203 14.3641 17.336C15.0944 16.6056 15.2907 15.541 14.9543 14.6301C15.5816 14.6088 16.2027 14.3599 16.6805 13.8822C17.1579 13.4048 17.4068 12.7845 17.4284 12.1577C17.7103 12.2621 18.0111 12.317 18.3206 12.317C19.0058 12.317 19.6499 12.0501 20.1343 11.5657C20.5348 11.1652 20.7745 10.664 20.8542 10.1428L21.8118 11.1003L21.1254 11.7867C20.9204 11.9917 20.9204 12.324 21.1254 12.5289C21.2279 12.6313 21.3623 12.6827 21.4966 12.6827C21.6309 12.6827 21.7652 12.6314 21.8677 12.5289L25.7132 8.6834C26.4011 7.99553 27.3156 7.61671 28.2884 7.61671C28.7649 7.61671 29.2273 7.70821 29.6561 7.88184L29.029 8.5089C28.198 9.3399 27.9392 10.5557 28.3323 11.6362L26.0075 13.961C25.0637 14.9047 24.544 16.1595 24.544 17.4943C24.544 18.5485 24.1334 19.5397 23.3879 20.2853C23.1829 20.4903 23.1829 20.8226 23.3879 21.0275C23.4904 21.13 23.6248 21.1813 23.7591 21.1813C23.8934 21.1813 24.0278 21.13 24.1302 21.0275C25.0739 20.0837 25.5937 18.8289 25.5937 17.4942C25.5937 16.4399 26.0042 15.4487 26.7498 14.7032L31.6058 9.84715C32.1314 9.32184 32.1314 8.46684 31.6059 7.94128ZM13.6219 16.5938C13.0311 17.1846 12.0698 17.1845 11.479 16.5938L11.0754 16.1902C11.0752 16.19 11.0752 16.19 11.075 16.1898L7.98394 13.0987C7.39356 12.5079 7.39363 11.5469 7.98431 10.9562C8.57512 10.3655 9.53644 10.3655 10.1272 10.9562L13.0531 13.8822L13.6218 14.4509C14.2126 15.0417 14.2126 16.003 13.6219 16.5938ZM19.392 10.8235C19.1058 11.1097 18.7253 11.2673 18.3206 11.2673C17.9159 11.2673 17.5354 11.1097 17.2492 10.8235C17.1861 10.7604 15.9496 9.5239 15.9496 9.5239C15.7446 9.3189 15.4123 9.3189 15.2073 9.5239C15.0023 9.7289 15.0023 10.0612 15.2073 10.2661L15.9382 10.9971C16.529 11.5878 16.529 12.5492 15.9382 13.1398C15.3475 13.7307 14.3862 13.7307 13.7954 13.1398L10.8694 10.2139L10.5352 9.87971C9.9445 9.28896 9.9445 8.32765 10.5352 7.73696C10.8214 7.45078 11.2019 7.29321 11.6066 7.29321C12.0114 7.29321 12.3919 7.45084 12.6781 7.73696L13.0117 8.07059C13.0119 8.07078 13.0121 8.07103 13.0122 8.07121C13.0123 8.07128 13.0124 8.0714 13.0126 8.07146L14.1925 9.25134C14.3975 9.45634 14.7298 9.45634 14.9347 9.25134C15.1397 9.04634 15.1397 8.71409 14.9347 8.50909L13.7541 7.32846C13.1638 6.73765 13.1639 5.77671 13.7546 5.18609C14.3453 4.59534 15.3066 4.59534 15.8973 5.18609L19.3921 8.68084C19.9828 9.27153 19.9828 10.2328 19.392 10.8235ZM30.8636 9.10502L29.2084 10.7603C29.168 10.2118 29.3628 9.65984 29.7714 9.25134L30.5882 8.43453C30.6834 8.5124 30.7754 8.59534 30.8637 8.68353C30.9797 8.79978 30.9797 8.9889 30.8636 9.10502Z" fill="#FF9F0F"/>
</svg>
