<svg width="24" height="8" viewBox="0 0 24 8" fill="none" xmlns="http://www.w3.org/2000/svg">
<path d="M12.0041 8C19.7957 8 24 5.93906 24 4C24 2.06094 19.7957 0 12.0041 0C11.7399 0 11.4801 0.00258252 11.2241 0.00722162C11.1991 0.0029764 11.1736 0 11.1473 0C11.1142 0 11.0824 0.00424593 11.0515 0.0108545C3.98498 0.168978 0.131907 2.07941 0.0112972 3.91133C0.00440598 3.93995 0 3.96945 0 4C0 4.03055 0.00440598 4.06005 0.0112972 4.08867C0.131907 5.92054 3.98498 7.83102 11.0515 7.9891C11.0824 7.99576 11.1142 8 11.1473 8C11.1736 8 11.1991 7.99698 11.2241 7.99278C11.4801 7.99742 11.7399 8 12.0041 8ZM0.969282 3.64638C1.62961 2.34638 5.35997 1.00537 10.7153 0.822172V3.64638L0.969282 3.64638ZM0.969282 4.4464L10.7153 4.4464V7.17783C5.35997 6.99463 1.62961 5.6464 0.969282 4.4464ZM11.5721 7.19726L11.5721 0.802696C11.6792 0.801077 11.8584 0.800026 12.0023 0.800026C18.5667 0.800026 23.1432 2.48656 23.1432 4C23.1432 5.51349 18.5667 7.19997 12.0023 7.19997C11.8585 7.19997 11.6792 7.19888 11.5721 7.19726Z" fill="white"/>
</svg>
