<svg width="24" height="24" viewBox="0 0 24 24" fill="none" xmlns="http://www.w3.org/2000/svg">
<g clip-path="url(#clip0_512_209)">
<path d="M15.9131 12.6651V15.0145C15.9131 15.2705 15.7054 15.4783 15.4494 15.4783C15.1934 15.4783 14.9857 15.2705 14.9857 15.0145V16.8696C14.9857 17.1256 14.7779 17.3333 14.5219 17.3333C14.2659 17.3333 14.0582 17.1256 14.0582 16.8696V14.5508C14.0582 14.8067 13.8504 15.0145 13.5944 15.0145C13.3385 15.0145 13.1307 14.8067 13.1307 14.5508V12.9025C12.737 12.9178 12.3534 12.9276 12 12.9276C11.2279 12.9276 10.3384 12.8933 9.42054 12.814V16.8696C9.42054 17.1256 9.21277 17.3334 8.95679 17.3334C8.70082 17.3334 8.49305 17.1256 8.49305 16.8696V14.5508C8.49305 14.8068 8.28528 15.0146 8.0293 15.0146C7.77333 15.0146 7.56556 14.8068 7.56556 14.5508V15.9421C7.56556 16.1981 7.35779 16.4059 7.10181 16.4059C6.84584 16.4059 6.63807 16.1981 6.63807 15.9421V12.4193C5.87053 12.2589 5.148 12.0548 4.52979 11.7974L5.95497 21.416C5.57003 21.6469 5.35019 21.903 5.35019 22.1738C5.35019 23.1825 8.32757 24.0001 12.0006 24.0001C15.6737 24.0001 18.651 23.1825 18.651 22.1738C18.651 21.8914 18.4103 21.6247 17.993 21.3858L19.4093 11.8244C18.4217 12.2249 17.1802 12.4925 15.9131 12.6651Z" fill="#FF9F0F"/>
<path d="M13.1306 11.9791V10.7627C12.7628 10.7757 12.3858 10.7826 11.9999 10.7826C11.0849 10.7826 10.2144 10.7446 9.42041 10.6769V11.8906C10.2603 11.9629 11.1308 12 11.9999 12C12.3774 12 12.7554 11.9926 13.1306 11.9791Z" fill="#FF9F0F"/>
<path d="M19.6756 7.64198C19.6413 7.46714 19.6015 7.27979 19.5541 7.07896C18.9401 4.49393 17.1314 0 11.9711 0C6.99765 0 5.19219 4.32278 4.54895 7.03492C4.50254 7.23013 4.46316 7.41477 4.42838 7.59096C3.53053 8.01576 2.9856 8.5491 2.9856 9.18865C2.9856 9.8333 3.53979 10.3698 4.44972 10.7961C5.04427 11.0743 5.79328 11.3044 6.63779 11.4871V10.2331C6.27885 10.1352 5.9783 10.0281 5.75477 9.91308C5.45006 9.75585 5.27755 9.58518 5.27755 9.40573C5.27755 8.64513 8.28742 8.02881 11.9998 8.02881C15.7128 8.02881 18.7221 8.64513 18.7221 9.40573C18.7221 9.58523 18.5496 9.75589 18.2449 9.91308C17.7668 10.1598 16.9491 10.3713 15.9126 10.5239V11.7413C17.3216 11.5451 18.5765 11.239 19.4878 10.8239C20.4348 10.3931 21.0145 9.84722 21.0145 9.1887C21.0146 8.57417 20.5104 8.05796 19.6756 7.64198ZM11.9998 6.3768C9.3508 6.3768 6.68318 6.7144 4.94455 7.37252C4.98209 7.20186 5.02385 7.02421 5.07162 6.83967C5.74129 4.25183 7.4869 0.463744 11.9706 0.463744C14.8024 0.463744 16.9098 1.86851 18.2343 4.63904C18.6057 5.41633 18.8603 6.19823 19.0342 6.8758C19.0829 7.06504 19.1238 7.24357 19.1604 7.41423C17.426 6.72929 14.7041 6.3768 11.9998 6.3768Z" fill="#FF9F0F"/>
</g>
<defs>
<clipPath id="clip0_512_209">
<rect width="24" height="24" rx="3" fill="white"/>
</clipPath>
</defs>
</svg>
