<svg width="16" height="16" viewBox="0 0 16 16" fill="none" xmlns="http://www.w3.org/2000/svg">
<g clip-path="url(#clip0_567_290)">
<path d="M13.6688 8.78825H13.0112C13.5372 7.70762 13.8869 6.68806 13.8869 5.88678C13.8869 5.31441 13.8049 4.7485 13.6431 4.20491C13.6034 4.07181 13.4635 3.99609 13.3302 4.03556C13.197 4.07522 13.1212 4.21525 13.1608 4.34844C13.3088 4.84544 13.3838 5.363 13.3838 5.88678C13.3838 8.55209 8.98397 14.1359 8.00013 15.3511C7.01625 14.1359 2.61644 8.55212 2.61644 5.88678C2.61644 2.91822 5.03153 0.503125 8.00009 0.503125C10.0384 0.503125 11.8787 1.63284 12.8028 3.45141C12.8658 3.57531 13.0172 3.62466 13.141 3.56172C13.2649 3.49875 13.3143 3.34731 13.2513 3.22347C12.7664 2.26906 12.0298 1.46378 11.1212 0.894531C10.187 0.309375 9.10772 0 8.00009 0C4.9255 0 2.39431 2.36937 2.13553 5.378C1.25637 5.47575 0.570312 6.22306 0.570312 7.12787V7.53041C0.570312 8.50141 1.36031 9.29141 2.33131 9.29141H3.24397C3.77231 10.2959 4.42644 11.3314 5.07316 12.2767H2.53253C1.56153 12.2767 0.771531 13.0667 0.771531 14.0377V14.239C0.771594 15.21 1.56159 16 2.53259 16H7.933C8.06866 16 8.23566 15.8643 8.31825 15.7582C8.82191 15.1111 9.57781 14.2006 10.5798 12.7769C10.5918 12.7787 10.604 12.7798 10.6164 12.7798H13.6688C14.6398 12.7798 15.4298 11.9898 15.4298 11.0188V10.5492C15.4299 9.57825 14.6398 8.78825 13.6688 8.78825ZM2.33134 8.78825C1.63775 8.78825 1.07347 8.224 1.07347 7.53038V7.12784C1.07347 6.50866 1.52334 5.99284 2.11334 5.88928C2.11409 6.69016 2.46353 7.70872 2.98903 8.78822H2.33134V8.78825ZM2.53259 15.4968C1.839 15.4968 1.27472 14.9326 1.27472 14.239V14.0377C1.27472 13.3441 1.83897 12.7798 2.53259 12.7798H5.42247C6.258 13.9668 7.03947 14.9625 7.46972 15.4968H2.53259V15.4968ZM14.9267 11.0189C14.9267 11.7125 14.3625 12.2767 13.6688 12.2767H10.927C11.5737 11.3314 12.2278 10.296 12.7562 9.29144H13.6688C14.3624 9.29144 14.9267 9.85569 14.9267 10.5493V11.0189Z" fill="#D98B17"/>
<path d="M7.99985 1.27463C5.45673 1.27463 3.3877 3.34366 3.3877 5.88678C3.3877 6.32091 3.44801 6.75066 3.56691 7.16403C3.60535 7.29753 3.74479 7.37475 3.87823 7.33628C4.01173 7.29785 4.08885 7.15847 4.05048 7.02497C3.94454 6.65678 3.89085 6.27385 3.89085 5.88678C3.89085 3.62107 5.73413 1.77778 7.99985 1.77778C10.2656 1.77778 12.1089 3.62107 12.1089 5.88678C12.1089 8.1525 10.2656 9.99582 7.99985 9.99582C6.49229 9.99582 5.10801 9.17216 4.38723 7.84635C4.32088 7.72428 4.16813 7.67907 4.04607 7.74547C3.92398 7.81182 3.87885 7.96457 3.9452 8.08663C4.75407 9.5746 6.30776 10.4989 7.99985 10.4989C10.543 10.4989 12.612 8.42991 12.612 5.88678C12.612 3.34366 10.543 1.27463 7.99985 1.27463Z" fill="#D98B17"/>
<path d="M10.952 3.62266H5.04844C4.90947 3.62266 4.79688 3.73525 4.79688 3.87422V8.16772C4.79688 8.30669 4.90947 8.41928 5.04844 8.41928H10.952C11.091 8.41928 11.2036 8.30669 11.2036 8.16772V3.87422C11.2036 3.73525 11.091 3.62266 10.952 3.62266ZM6.843 4.12578H7.68156V5.50103H6.843V4.12578ZM9.35872 7.91616H5.3V4.12578H6.33984V5.75263C6.33984 5.8916 6.45244 6.00419 6.59141 6.00419H7.93313C8.07209 6.00419 8.18469 5.8916 8.18469 5.75263V4.12578H9.35869V7.91616H9.35872ZM10.7004 7.91616H9.86188V4.12578H10.7004V7.91616Z" fill="#D98B17"/>
<path d="M8.80519 6.44025H5.92051C5.78154 6.44025 5.66895 6.55284 5.66895 6.69181C5.66895 6.83078 5.78154 6.94337 5.92051 6.94337H8.80519C8.94416 6.94337 9.05676 6.83078 9.05676 6.69181C9.05676 6.55284 8.94416 6.44025 8.80519 6.44025Z" fill="#D98B17"/>
<path d="M8.80519 7.17818H5.92051C5.78154 7.17818 5.66895 7.29078 5.66895 7.42975C5.66895 7.56872 5.78154 7.68131 5.92051 7.68131H8.80519C8.94416 7.68131 9.05676 7.56872 9.05676 7.42975C9.05676 7.29078 8.94416 7.17818 8.80519 7.17818Z" fill="#D98B17"/>
</g>
<defs>
<clipPath id="clip0_567_290">
<rect width="16" height="16" rx="3" fill="white"/>
</clipPath>
</defs>
</svg>
