<svg width="30" height="30" viewBox="0 0 30 30" fill="none" xmlns="http://www.w3.org/2000/svg">
<path d="M27.6923 21.9231C27.6923 22.5603 28.2089 23.0769 28.8462 23.0769C29.4834 23.0769 30 22.5603 30 21.9231C30 21.2858 29.4834 20.7692 28.8462 20.7692C28.2089 20.7692 27.6923 21.2858 27.6923 21.9231Z" fill="#2D6192"/>
<path d="M27.6923 28.8462C27.6923 29.4834 28.2089 30 28.8462 30C29.4834 30 30 29.4834 30 28.8462C30 28.2089 29.4834 27.6923 28.8462 27.6923C28.2089 27.6923 27.6923 28.2089 27.6923 28.8462Z" fill="#2D6192"/>
<path d="M20.7692 8.07692C20.7692 8.71417 21.2858 9.23077 21.9231 9.23077C22.5603 9.23077 23.0769 8.71417 23.0769 8.07692C23.0769 7.43967 22.5603 6.92308 21.9231 6.92308C21.2858 6.92308 20.7692 7.43967 20.7692 8.07692Z" fill="#2D6192"/>
<path d="M20.7692 15C20.7692 15.6373 21.2858 16.1538 21.9231 16.1538C22.5603 16.1538 23.0769 15.6373 23.0769 15C23.0769 14.3627 22.5603 13.8462 21.9231 13.8462C21.2858 13.8462 20.7692 14.3627 20.7692 15Z" fill="#2D6192"/>
<path d="M20.7692 21.9231C20.7692 22.5603 21.2858 23.0769 21.9231 23.0769C22.5603 23.0769 23.0769 22.5603 23.0769 21.9231C23.0769 21.2858 22.5603 20.7692 21.9231 20.7692C21.2858 20.7692 20.7692 21.2858 20.7692 21.9231Z" fill="#2D6192"/>
<path d="M20.7692 28.8462C20.7692 29.4834 21.2858 30 21.9231 30C22.5603 30 23.0769 29.4834 23.0769 28.8462C23.0769 28.2089 22.5603 27.6923 21.9231 27.6923C21.2858 27.6923 20.7692 28.2089 20.7692 28.8462Z" fill="#2D6192"/>
<path d="M13.8462 8.07692C13.8462 8.71417 14.3627 9.23077 15 9.23077C15.6373 9.23077 16.1538 8.71417 16.1538 8.07692C16.1538 7.43967 15.6373 6.92308 15 6.92308C14.3627 6.92308 13.8462 7.43967 13.8462 8.07692Z" fill="#2D6192"/>
<path d="M13.8462 15C13.8462 15.6373 14.3627 16.1538 15 16.1538C15.6373 16.1538 16.1538 15.6373 16.1538 15C16.1538 14.3627 15.6373 13.8462 15 13.8462C14.3627 13.8462 13.8462 14.3627 13.8462 15Z" fill="#2D6192"/>
<path d="M13.8462 21.9231C13.8462 22.5603 14.3627 23.0769 15 23.0769C15.6373 23.0769 16.1538 22.5603 16.1538 21.9231C16.1538 21.2858 15.6373 20.7692 15 20.7692C14.3627 20.7692 13.8462 21.2858 13.8462 21.9231Z" fill="#2D6192"/>
<path d="M13.8462 28.8462C13.8462 29.4834 14.3627 30 15 30C15.6373 30 16.1538 29.4834 16.1538 28.8462C16.1538 28.2089 15.6373 27.6923 15 27.6923C14.3627 27.6923 13.8462 28.2089 13.8462 28.8462Z" fill="#2D6192"/>
<path d="M6.92308 1.15385C6.92308 1.7911 7.43967 2.30769 8.07692 2.30769C8.71417 2.30769 9.23077 1.7911 9.23077 1.15385C9.23077 0.516594 8.71417 0 8.07692 0C7.43967 0 6.92308 0.516594 6.92308 1.15385Z" fill="#2D6192"/>
<path d="M6.92308 8.07692C6.92308 8.71417 7.43967 9.23077 8.07692 9.23077C8.71417 9.23077 9.23077 8.71417 9.23077 8.07692C9.23077 7.43967 8.71417 6.92308 8.07692 6.92308C7.43967 6.92308 6.92308 7.43967 6.92308 8.07692Z" fill="#2D6192"/>
<path d="M6.92308 15C6.92308 15.6373 7.43967 16.1538 8.07692 16.1538C8.71417 16.1538 9.23077 15.6373 9.23077 15C9.23077 14.3627 8.71417 13.8462 8.07692 13.8462C7.43967 13.8462 6.92308 14.3627 6.92308 15Z" fill="#2D6192"/>
<path d="M6.92308 21.9231C6.92308 22.5603 7.43967 23.0769 8.07692 23.0769C8.71417 23.0769 9.23077 22.5603 9.23077 21.9231C9.23077 21.2858 8.71417 20.7692 8.07692 20.7692C7.43967 20.7692 6.92308 21.2858 6.92308 21.9231Z" fill="#2D6192"/>
<path d="M6.92308 28.8462C6.92308 29.4834 7.43967 30 8.07692 30C8.71417 30 9.23077 29.4834 9.23077 28.8462C9.23077 28.2089 8.71417 27.6923 8.07692 27.6923C7.43967 27.6923 6.92308 28.2089 6.92308 28.8462Z" fill="#2D6192"/>
<path d="M0 1.15385C0 1.7911 0.516594 2.30769 1.15385 2.30769C1.7911 2.30769 2.30769 1.7911 2.30769 1.15385C2.30769 0.516594 1.7911 0 1.15385 0C0.516594 0 0 0.516594 0 1.15385Z" fill="#2D6192"/>
<path d="M0 8.07692C0 8.71417 0.516594 9.23077 1.15385 9.23077C1.7911 9.23077 2.30769 8.71417 2.30769 8.07692C2.30769 7.43967 1.7911 6.92308 1.15385 6.92308C0.516594 6.92308 0 7.43967 0 8.07692Z" fill="#2D6192"/>
<path d="M0 15C0 15.6373 0.516594 16.1538 1.15385 16.1538C1.7911 16.1538 2.30769 15.6373 2.30769 15C2.30769 14.3627 1.7911 13.8462 1.15385 13.8462C0.516594 13.8462 0 14.3627 0 15Z" fill="#2D6192"/>
<path d="M0 21.9231C0 22.5603 0.516594 23.0769 1.15385 23.0769C1.7911 23.0769 2.30769 22.5603 2.30769 21.9231C2.30769 21.2858 1.7911 20.7692 1.15385 20.7692C0.516594 20.7692 0 21.2858 0 21.9231Z" fill="#2D6192"/>
<path d="M0 28.8462C0 29.4834 0.516594 30 1.15385 30C1.7911 30 2.30769 29.4834 2.30769 28.8462C2.30769 28.2089 1.7911 27.6923 1.15385 27.6923C0.516594 27.6923 0 28.2089 0 28.8462Z" fill="#2D6192"/>
</svg>
