<svg width="32" height="32" viewBox="0 0 32 32" fill="none" xmlns="http://www.w3.org/2000/svg">
<g clip-path="url(#clip0_585_264)">
<circle cx="16" cy="16" r="16" fill="white"/>
<path d="M18.2751 7.29923C15.1924 8.11083 13.0865 10.0971 10.286 14.7745C7.55054 19.3024 6.22625 20.6052 3.8816 20.9683C3.33886 21.0324 2.73098 21.1605 2.5356 21.2032C2.03627 21.3527 1.84089 22.0148 2.14482 22.5701C2.47047 23.1468 4.31579 23.1468 5.92231 22.5488C8.11499 21.7585 9.54784 20.1353 12.5872 15.0094C14.845 11.2077 16.8423 9.58453 19.7948 9.11466C22.6171 8.6875 24.2236 9.47774 24.6144 11.5495C25.0269 13.6639 22.5302 14.1551 22.0309 12.0407C21.6619 10.5243 19.404 11.0155 18.2969 12.8736C17.7541 13.792 17.6673 14.1338 17.6673 15.6288C17.6673 16.9744 17.7758 17.551 18.1666 18.3413C19.5994 21.1819 23.1381 22.9759 27.3715 22.9973C28.8478 22.9973 29.0866 22.9332 29.282 22.5701C29.6076 21.9721 29.3688 21.31 28.7826 21.2032C28.5221 21.1605 27.4801 21.011 26.4597 20.9042C23.1815 20.5198 21.0757 19.4092 20.1422 17.5937C19.7731 16.9103 19.708 16.4404 19.7731 15.3939C19.8165 14.6464 19.9251 13.9843 20.0119 13.8988C20.0988 13.8134 20.4895 14.027 20.8803 14.4114C22.1395 15.6075 23.3335 15.7997 24.8532 15.0735C26.1341 14.4755 26.6768 13.5571 26.6768 11.9553C26.6768 9.71268 25.4828 8.0254 23.3769 7.27788C22.2697 6.89343 19.7731 6.91479 18.2751 7.29923Z" fill="url(#paint0_linear_585_264)"/>
</g>
<defs>
<linearGradient id="paint0_linear_585_264" x1="15.7143" y1="23" x2="15.7143" y2="7" gradientUnits="userSpaceOnUse">
<stop stop-color="#1D456A"/>
<stop offset="1" stop-color="#266CAC" stop-opacity="0.76"/>
</linearGradient>
<clipPath id="clip0_585_264">
<rect width="32" height="32" fill="white"/>
</clipPath>
</defs>
</svg>
