<svg width="250" height="36" viewBox="0 0 250 36" fill="none" xmlns="http://www.w3.org/2000/svg">
<path d="M127.993 0.79726C121.574 2.55524 117.189 6.85766 111.358 16.9892C105.663 26.7969 102.906 29.6189 98.024 30.4053C96.8939 30.5441 95.6283 30.8217 95.2215 30.9142C94.1818 31.2381 93.775 32.6722 94.4079 33.875C95.0859 35.1241 98.928 35.1241 102.273 33.8288C106.838 32.1171 109.822 28.6011 116.15 17.4981C120.851 9.26332 125.009 5.74736 131.157 4.72958C137.033 3.80433 140.378 5.51605 141.191 10.0035C142.05 14.5835 136.852 15.6476 135.812 11.0676C135.044 7.78292 130.343 8.84696 128.038 12.8718C126.908 14.8611 126.727 15.6013 126.727 18.8397C126.727 21.7542 126.953 23.0033 127.767 24.715C130.75 30.868 138.118 34.754 146.932 34.8003C150.006 34.8003 150.503 34.6615 150.91 33.875C151.588 32.5797 151.091 31.1455 149.87 30.9142C149.328 30.8217 147.158 30.4979 145.034 30.2666C138.208 29.4338 133.824 27.0282 131.88 23.0958C131.111 21.6154 130.976 20.5977 131.111 18.3308C131.202 16.7116 131.428 15.2775 131.609 15.0924C131.79 14.9074 132.603 15.37 133.417 16.2027C136.038 18.7934 138.525 19.2098 141.689 17.6369C144.356 16.3415 145.486 14.3522 145.486 10.8825C145.486 6.02494 142.999 2.37019 138.615 0.750999C136.31 -0.0817299 131.111 -0.0354652 127.993 0.79726Z" fill="#4E56A4"/>
<path d="M7.07856 2.92535C4.63768 3.48051 1.92559 5.4698 1.11196 7.27404C0.0723225 9.44839 0.162726 13.2882 1.29276 15.1387C2.242 16.7116 3.64324 17.7757 8.84142 20.8753C12.5027 23.0033 13.4972 24.4375 13.4972 27.352C13.4972 31.0993 12.0507 32.4872 8.1634 32.4872C5.4513 32.4872 4.18566 31.5619 3.05562 28.925C2.3776 27.2595 2.01599 26.8894 1.20236 27.0282C0.253129 27.167 0.162725 27.4446 0.0271209 30.3591C-0.0632821 32.5334 0.0723225 33.69 0.433935 33.9213C0.750345 34.1064 2.69401 34.5227 4.72808 34.8003C13 36.0031 18.0173 32.8573 18.0173 26.473C18.0173 22.1706 16.0285 19.4874 11.1015 16.9429C5.99372 14.306 4.14046 11.854 4.72808 8.61566C5.13489 6.30253 6.76215 5.19222 9.70025 5.19222C12.4575 5.19222 13.4972 5.93243 14.6272 8.66192C15.1244 10.0035 15.486 10.3274 16.2997 10.1886C17.2489 10.0498 17.3393 9.81849 17.3393 6.81142V3.57303L14.8532 3.01788C11.8699 2.41647 9.33864 2.3702 7.07856 2.92535Z" fill="white"/>
<path d="M215.91 2.92516C213.469 3.48031 210.757 5.4696 209.943 7.27385C208.903 9.44819 208.994 13.288 210.124 15.1385C211.073 16.7114 212.474 17.7755 217.672 20.8751C221.334 23.0031 222.328 24.4373 222.328 27.3518C222.328 31.0991 220.882 32.487 216.994 32.487C214.282 32.487 213.017 31.5617 211.887 28.9248C211.209 27.2593 210.847 26.8892 210.033 27.028C209.084 27.1668 208.994 27.4444 208.858 30.0351C208.768 31.6543 208.587 32.9496 208.361 32.9496C207.683 32.9496 206.146 30.7753 203.976 26.7504C202.756 24.5298 201.129 22.0779 200.315 21.384L198.869 20.0886L200.134 19.5334C201.761 18.8395 204.067 16.4338 204.654 14.7684C204.926 14.0282 205.152 12.3627 205.152 11.0211C205.152 7.829 203.841 5.79344 200.857 4.26678C198.733 3.15647 198.191 3.11021 191.184 3.11021C185.67 3.11021 183.726 3.249 183.59 3.66536C183.455 3.9892 183.907 4.45183 184.54 4.7294C185.172 4.96072 185.805 5.65466 185.941 6.20981C186.077 6.81122 186.122 12.8716 186.077 19.7648L185.941 32.2094L184.811 32.8108C184.178 33.1347 183.681 33.6435 183.681 33.9674C183.681 34.8001 192.992 34.8464 193.264 34.0136C193.399 33.6898 192.947 33.1809 192.36 32.9033C191.003 32.2557 190.687 30.9603 190.687 25.5013V21.384H193.128C194.529 21.384 195.75 21.6153 196.021 21.9391C196.292 22.2629 197.738 24.9462 199.275 27.8607C200.812 30.7753 202.394 33.551 202.756 33.9674C203.479 34.8001 204.202 34.8464 217.718 34.8926C223.277 34.9389 226.803 31.7005 226.848 26.5654C226.848 25.2237 226.577 23.4658 226.215 22.633C225.447 20.7363 222.961 18.5157 219.932 16.9427C214.825 14.3058 212.971 11.8538 213.559 8.61546C213.966 6.30233 215.593 5.19203 218.531 5.19203C221.288 5.19203 222.328 5.93223 223.458 8.66173C223.955 10.0033 224.317 10.3272 225.131 10.1884C226.08 10.0496 226.17 9.81829 226.17 6.81122V3.57284L223.684 3.01768C220.701 2.41627 218.17 2.37001 215.91 2.92516ZM197.874 6.30233C199.501 7.18132 200.179 8.84678 200.179 12.0389C200.179 15.0922 199.049 17.4516 197.196 18.1456C196.563 18.4231 194.846 18.6082 193.354 18.6082H190.687V12.1314V5.65466H193.625C195.343 5.65466 197.151 5.93223 197.874 6.30233Z" fill="white"/>
<path d="M20.0062 3.38778C19.8706 3.66536 20.2323 4.3593 20.8651 4.91445L22.0403 5.88597L22.1759 16.7577C22.3115 26.6116 22.4019 27.8145 23.2608 29.7112C24.5716 32.5795 26.5153 34.1524 29.6342 34.8464C34.6967 35.9104 39.5333 34.1062 41.6126 30.4052C42.607 28.6472 42.6522 27.9532 42.8782 17.3128L43.1042 6.02475L44.4151 4.96071C46.3587 3.34152 45.5903 2.87889 41.0702 2.87889C36.5952 2.87889 35.6912 3.38778 37.5896 4.82193L38.8101 5.74718V16.8039C38.8101 28.6934 38.5841 30.2664 36.5048 31.7468C35.1036 32.7183 30.7642 32.7646 29.4082 31.7468C27.2385 30.1738 27.0577 29.1561 27.0577 17.0353V5.74718L28.2781 4.82193C28.9561 4.31304 29.3178 3.71162 29.137 3.43405C28.6849 2.69384 20.4583 2.69384 20.0062 3.38778Z" fill="white"/>
<path d="M47.2175 3.2953C46.8107 3.94297 47.2627 4.72944 48.0763 4.72944C49.4776 4.72944 49.6584 6.53368 49.568 19.3947L49.4323 32.2094L48.3023 32.8109C47.6695 33.1347 47.1723 33.6436 47.1723 33.9674C47.1723 34.8001 56.4838 34.8464 56.755 34.0137C56.8906 33.6898 56.4386 33.181 55.851 32.9034C54.4949 32.2557 54.1785 30.9603 54.1785 25.5014V21.384H56.6194C58.0206 21.384 59.2411 21.6153 59.5123 21.9391C59.7835 22.263 61.2299 24.9462 62.7668 27.8608C64.3036 30.7753 65.8857 33.5511 66.2473 33.9674C66.8801 34.6614 67.9198 34.7539 75.1068 34.6614C81.1186 34.6151 83.2883 34.43 83.4239 34.0137C83.5595 33.6898 83.1075 33.2272 82.4747 32.9496C80.8022 32.302 80.3954 30.8216 80.3954 25.0387V19.9498L83.4691 20.0886C86.4976 20.2274 86.4976 20.2274 87.3564 21.9854C87.9892 23.327 88.3961 23.6971 89.1645 23.6046C90.0685 23.4658 90.1137 23.2345 90.1137 18.6082C90.1137 13.9357 90.0685 13.7507 89.1193 13.6119C88.3057 13.4731 87.944 13.8432 87.3564 15.3236L86.6332 17.2203H83.5143H80.3954V11.4375V5.65469H84.5991C89.3453 5.65469 89.6617 5.83974 90.9725 9.03186C91.515 10.466 91.8766 10.7898 92.6902 10.6511C93.6846 10.5123 93.7298 10.3272 93.7298 6.81125V3.11024H83.5595C75.604 3.11024 73.3892 3.24903 73.3892 3.71166C73.3892 4.0355 73.8864 4.54439 74.5192 4.86823L75.6492 5.46964L75.7848 18.6545C75.9204 33.2272 75.9204 33.0884 73.1631 33.0884C71.3099 33.0884 70.3154 32.0244 67.6034 27.028C66.3377 24.6224 64.6201 22.0779 63.8064 21.384L62.36 20.0886L63.6256 19.5335C65.2529 18.8395 67.5582 16.4339 68.1458 14.7684C68.417 14.0282 68.643 12.3628 68.643 11.0212C68.643 7.82903 67.3321 5.79348 64.3488 4.26681C62.2696 3.20277 61.5012 3.11024 54.8113 2.97146C49.8392 2.83267 47.3983 2.92519 47.2175 3.2953ZM61.3655 6.30237C62.9928 7.18136 63.6708 8.84681 63.6708 12.0389C63.6708 15.0923 62.5408 17.4517 60.6875 18.1456C60.0547 18.4232 58.337 18.6082 56.8454 18.6082H54.1785V12.1315V5.65469H57.1166C58.8343 5.65469 60.6423 5.93226 61.3655 6.30237Z" fill="white"/>
<path d="M156.063 3.38778C155.927 3.66536 156.289 4.3593 156.922 4.91445L158.097 5.88597L158.232 16.7577C158.368 26.6116 158.458 27.8145 159.317 29.7112C160.628 32.5795 162.572 34.1524 165.691 34.8464C170.753 35.9104 175.59 34.1062 177.669 30.4052C178.664 28.6472 178.709 27.9532 178.935 17.3128L179.161 6.02475L180.472 4.96071C182.415 3.34152 181.647 2.87889 177.127 2.87889C172.652 2.87889 171.748 3.38778 173.646 4.82193L174.867 5.74718V16.8039C174.867 28.6934 174.641 30.2664 172.561 31.7468C171.16 32.7183 166.821 32.7646 165.465 31.7468C163.295 30.1738 163.114 29.1561 163.114 17.0353V5.74718L164.335 4.82193C165.013 4.31304 165.374 3.71162 165.193 3.43405C164.741 2.69384 156.515 2.69384 156.063 3.38778Z" fill="white"/>
<path d="M228.973 3.15664C228.385 3.75805 228.656 4.22068 229.922 4.82209L231.142 5.42351V18.8397V32.2096L230.012 32.811C229.38 33.1348 228.882 33.6437 228.882 33.9676C228.882 34.4302 231.142 34.6152 239.007 34.7078C244.612 34.754 249.313 34.6615 249.494 34.4764C249.675 34.2451 249.901 32.3484 249.946 30.174C250.082 26.7043 249.991 26.2417 249.313 26.1029C248.183 25.8716 247.325 26.7506 246.963 28.3235C246.782 29.0637 246.285 30.2203 245.788 30.868C244.929 31.9783 244.658 32.0245 240.363 32.0245H235.889V25.7791V19.5336H239.098H242.262L242.94 21.1991C243.482 22.4482 243.844 22.8183 244.612 22.6795C245.562 22.5407 245.607 22.3094 245.607 18.1457C245.607 13.9821 245.562 13.7508 244.612 13.612C243.844 13.4732 243.482 13.8433 242.94 15.0924L242.262 16.7579H239.098H235.889V11.2063V5.65482H240.318C245.29 5.65482 245.607 5.79361 246.918 9.03199C247.46 10.4661 247.822 10.79 248.635 10.6512C249.63 10.5124 249.675 10.3273 249.675 6.81139V3.11038L239.459 2.97159C233.854 2.92533 229.154 3.01785 228.973 3.15664Z" fill="white"/>
</svg>
