<?xml version="1.0" standalone="no"?>
<!DOCTYPE svg PUBLIC "-//W3C//DTD SVG 20010904//EN"
 "http://www.w3.org/TR/2001/REC-SVG-20010904/DTD/svg10.dtd">
<svg version="1.0" xmlns="http://www.w3.org/2000/svg"
 width="567.000000pt" height="133.000000pt" viewBox="0 0 567.000000 133.000000"
 preserveAspectRatio="xMidYMid meet">

<g transform="translate(0.000000,133.000000) scale(0.100000,-0.100000)"
fill="#000000" stroke="none">
<path d="M2903 1025 c-142 -38 -239 -131 -368 -350 -126 -212 -187 -273 -295
-290 -25 -3 -53 -9 -62 -11 -23 -7 -32 -38 -18 -64 15 -27 100 -27 174 1 101
37 167 113 307 353 104 178 196 254 332 276 130 20 204 -17 222 -114 19 -99
-96 -122 -119 -23 -17 71 -121 48 -172 -39 -25 -43 -29 -59 -29 -129 0 -63 5
-90 23 -127 66 -133 229 -217 424 -218 68 0 79 3 88 20 15 28 4 59 -23 64 -12
2 -60 9 -107 14 -151 18 -248 70 -291 155 -17 32 -20 54 -17 103 2 35 7 66 11
70 4 4 22 -6 40 -24 58 -56 113 -65 183 -31 59 28 84 71 84 146 0 105 -55 184
-152 219 -51 18 -166 17 -235 -1z"/>
<path d="M228 979 c-54 -12 -114 -55 -132 -94 -23 -47 -21 -130 4 -170 21 -34
52 -57 167 -124 81 -46 103 -77 103 -140 0 -81 -32 -111 -118 -111 -60 0 -88
20 -113 77 -15 36 -23 44 -41 41 -21 -3 -23 -9 -26 -72 -2 -47 1 -72 9 -77 7
-4 50 -13 95 -19 183 -26 294 42 294 180 0 93 -44 151 -153 206 -113 57 -154
110 -141 180 9 50 45 74 110 74 61 0 84 -16 109 -75 11 -29 19 -36 37 -33 21
3 23 8 23 73 l0 70 -55 12 c-66 13 -122 14 -172 2z"/>
<path d="M4848 979 c-54 -12 -114 -55 -132 -94 -23 -47 -21 -130 4 -170 21
-34 52 -57 167 -124 81 -46 103 -77 103 -140 0 -81 -32 -111 -118 -111 -60 0
-88 20 -113 77 -15 36 -23 44 -41 41 -21 -3 -23 -9 -26 -65 -2 -35 -6 -63 -11
-63 -15 0 -49 47 -97 134 -27 48 -63 101 -81 116 l-32 28 28 12 c36 15 87 67
100 103 6 16 11 52 11 81 0 69 -29 113 -95 146 -47 24 -59 25 -214 25 -122 0
-165 -3 -168 -12 -3 -7 7 -17 21 -23 14 -5 28 -20 31 -32 3 -13 4 -144 3 -293
l-3 -269 -25 -13 c-14 -7 -25 -18 -25 -25 0 -18 206 -19 212 -1 3 7 -7 18 -20
24 -30 14 -37 42 -37 160 l0 89 54 0 c31 0 58 -5 64 -12 6 -7 38 -65 72 -128
34 -63 69 -123 77 -132 16 -18 32 -19 331 -20 123 -1 201 69 202 180 0 29 -6
67 -14 85 -17 41 -72 89 -139 123 -113 57 -154 110 -141 180 9 50 45 74 110
74 61 0 84 -16 109 -75 11 -29 19 -36 37 -33 21 3 23 8 23 73 l0 70 -55 12
c-66 13 -122 14 -172 2z m-399 -73 c36 -19 51 -55 51 -124 0 -66 -25 -117 -66
-132 -14 -6 -52 -10 -85 -10 l-59 0 0 140 0 140 65 0 c38 0 78 -6 94 -14z"/>
<path d="M514 969 c-3 -6 5 -21 19 -33 l26 -21 3 -235 c3 -213 5 -239 24 -280
29 -62 72 -96 141 -111 112 -23 219 16 265 96 22 38 23 53 28 283 l5 244 29
23 c43 35 26 45 -74 45 -99 0 -119 -11 -77 -42 l27 -20 0 -239 c0 -257 -5
-291 -51 -323 -31 -21 -127 -22 -157 0 -48 34 -52 56 -52 318 l0 244 27 20
c15 11 23 24 19 30 -10 16 -192 16 -202 1z"/>
<path d="M1116 971 c-9 -14 1 -31 19 -31 31 0 35 -39 33 -317 l-3 -277 -25
-13 c-14 -7 -25 -18 -25 -25 0 -18 206 -19 212 -1 3 7 -7 18 -20 24 -30 14
-37 42 -37 160 l0 89 54 0 c31 0 58 -5 64 -12 6 -7 38 -65 72 -128 34 -63 69
-123 77 -132 14 -15 37 -17 196 -15 133 1 181 5 184 14 3 7 -7 17 -21 23 -37
14 -46 46 -46 171 l0 110 68 -3 c67 -3 67 -3 86 -41 14 -29 23 -37 40 -35 20
3 21 8 21 108 0 101 -1 105 -22 108 -18 3 -26 -5 -39 -37 l-16 -41 -69 0 -69
0 0 125 0 125 93 0 c105 0 112 -4 141 -73 12 -31 20 -38 38 -35 22 3 23 7 23
83 l0 80 -225 0 c-176 0 -225 -3 -225 -13 0 -7 11 -18 25 -25 l25 -13 3 -285
c3 -315 3 -312 -58 -312 -41 0 -63 23 -123 131 -28 52 -66 107 -84 122 l-32
28 28 12 c36 15 87 67 100 103 6 16 11 52 11 81 0 69 -29 113 -95 146 -46 23
-63 25 -211 28 -110 3 -164 1 -168 -7z m313 -65 c36 -19 51 -55 51 -124 0 -66
-25 -117 -66 -132 -14 -6 -52 -10 -85 -10 l-59 0 0 140 0 140 65 0 c38 0 78
-6 94 -14z"/>
<path d="M3524 969 c-3 -6 5 -21 19 -33 l26 -21 3 -235 c3 -213 5 -239 24
-280 29 -62 72 -96 141 -111 112 -23 219 16 265 96 22 38 23 53 28 283 l5 244
29 23 c43 35 26 45 -74 45 -99 0 -119 -11 -77 -42 l27 -20 0 -239 c0 -257 -5
-291 -51 -323 -31 -21 -127 -22 -157 0 -48 34 -52 56 -52 318 l0 244 27 20
c15 11 23 24 19 30 -10 16 -192 16 -202 1z"/>
<path d="M5137 974 c-13 -13 -7 -23 21 -36 l27 -13 0 -290 0 -289 -25 -13
c-14 -7 -25 -18 -25 -25 0 -10 50 -14 224 -16 124 -1 228 1 232 5 4 5 9 46 10
93 3 75 1 85 -14 88 -25 5 -44 -14 -52 -48 -4 -16 -15 -41 -26 -55 -19 -24
-25 -25 -120 -25 l-99 0 0 135 0 135 71 0 70 0 15 -36 c12 -27 20 -35 37 -32
21 3 22 8 22 98 0 90 -1 95 -22 98 -17 3 -25 -5 -37 -32 l-15 -36 -70 0 -71 0
0 120 0 120 98 0 c110 0 117 -3 146 -73 12 -31 20 -38 38 -35 22 3 23 7 23 83
l0 80 -226 3 c-124 1 -228 -1 -232 -4z"/>
</g>
</svg>
